999
"DXF R12 Output" (www.mydxf.blogspot.com)
 0 
SECTION
 2 
HEADER
 9 
$ACADVER
 1 
AC1009
 9 
$EXTMIN
 10 
 0 
 20 
 0 
 9 
$EXTMAX
 10 
 8.5 
 20 
 11 
 0 
ENDSEC
 0 
SECTION
 2 
ENTITIES
0
LINE
8
Layer 1
10
0.793749
20
297.793749
11
-0.793749
21
296.206251
0
LINE
8
Layer 1
10
0.000000
20
298.322915
11
0.000000
21
295.677085
0
LINE
8
Layer 1
10
2.116664
20
295.941668
11
1.058332
21
294.883336
0
LINE
8
Layer 1
10
1.587498
20
296.470834
11
0.529166
21
295.412502
0
LINE
8
Layer 1
10
1.058332
20
297.000000
11
0.000000
21
295.941668
0
LINE
8
0
10
130.749775
20
150.100343
11
130.749775
21
218.900125
0
LINE
8
0
10
130.749775
20
218.900125
11
128.949552
21
218.900125
0
LINE
8
0
10
128.949552
20
218.900125
11
128.949552
21
222.100257
0
LINE
8
0
10
128.949552
20
222.100257
11
130.749775
21
222.100257
0
LINE
8
0
10
130.749775
20
222.100257
11
130.749775
21
256.550022
0
LINE
8
0
10
130.749775
20
256.550022
11
79.249752
21
256.550022
0
LINE
8
0
10
79.249752
20
256.550022
11
79.249752
21
222.100257
0
LINE
8
0
10
79.249752
20
222.100257
11
81.049710
21
222.100257
0
LINE
8
0
10
81.049710
20
222.100257
11
81.049710
21
218.900125
0
LINE
8
0
10
81.049710
20
218.900125
11
79.249752
21
218.900125
0
LINE
8
0
10
79.249752
20
218.900125
11
79.249752
21
150.100343
0
LINE
8
0
10
79.249752
20
150.100343
11
81.049710
21
150.100343
0
LINE
8
0
10
81.049710
20
150.100343
11
81.049710
21
146.900477
0
LINE
8
0
10
81.049710
20
146.900477
11
79.249752
21
146.900477
0
LINE
8
0
10
79.249752
20
146.900477
11
79.249752
21
78.100430
0
LINE
8
0
10
79.249752
20
78.100430
11
81.049710
21
78.100430
0
LINE
8
0
10
81.049710
20
78.100430
11
81.049710
21
74.900563
0
LINE
8
0
10
81.049710
20
74.900563
11
79.249752
21
74.900563
0
LINE
8
0
10
79.249752
20
74.900563
11
79.249752
21
40.450534
0
LINE
8
0
10
79.249752
20
40.450534
11
130.749775
21
40.450534
0
LINE
8
0
10
130.749775
20
40.450534
11
130.749775
21
74.900563
0
LINE
8
0
10
130.749775
20
74.900563
11
128.949552
21
74.900563
0
LINE
8
0
10
128.949552
20
74.900563
11
128.949552
21
78.100430
0
LINE
8
0
10
128.949552
20
78.100430
11
130.749775
21
78.100430
0
LINE
8
0
10
130.749775
20
78.100430
11
130.749775
21
146.900477
0
LINE
8
0
10
130.749775
20
146.900477
11
128.949552
21
146.900477
0
LINE
8
0
10
128.949552
20
146.900477
11
128.949552
21
150.100343
0
LINE
8
0
10
128.949552
20
150.100343
11
130.749775
21
150.100343
0
LINE
8
Layer 1
10
0.793749
20
297.793749
11
-0.793749
21
296.206251
0
LINE
8
Layer 1
10
0.000000
20
298.322912
11
0.000000
21
295.677088
0
LINE
8
Layer 1
10
2.116661
20
295.941668
11
1.058332
21
294.883339
0
LINE
8
Layer 1
10
1.587495
20
296.470834
11
0.529166
21
295.412505
0
LINE
8
Layer 1
10
1.058332
20
297.000000
11
0.000000
21
295.941668
0
LINE
8
Layer 1
10
47.587737
20
245.031673
11
67.587712
21
245.031673
0
LINE
8
Layer 1
10
67.587712
20
245.031673
11
67.587712
21
225.031698
0
LINE
8
Layer 1
10
67.587712
20
225.031698
11
47.587737
21
225.031698
0
LINE
8
Layer 1
10
47.587737
20
225.031698
11
47.587737
21
245.031673
 0 
ENDSEC
 0 
EOF